<?xml version="1.0" standalone="no"?>
<!DOCTYPE svg PUBLIC "-//W3C//DTD SVG 20010904//EN"
 "http://www.w3.org/TR/2001/REC-SVG-20010904/DTD/svg10.dtd">
<svg version="1.0" xmlns="http://www.w3.org/2000/svg"
 width="512.000000pt" height="512.000000pt" viewBox="0 0 512.000000 512.000000"
 preserveAspectRatio="xMidYMid meet">

<g transform="translate(0.000000,512.000000) scale(0.100000,-0.100000)"
fill="#000000" stroke="none">
<path d="M1283 5105 c-167 -36 -316 -154 -392 -312 -56 -113 -61 -159 -61
-554 l0 -356 -108 -5 c-88 -3 -117 -9 -163 -30 -68 -31 -118 -79 -150 -144
-23 -46 -24 -59 -24 -234 0 -182 0 -186 28 -242 32 -64 80 -112 146 -142 35
-15 73 -21 159 -24 l112 -4 0 -140 0 -140 -58 -58 c-66 -65 -114 -149 -137
-235 -22 -88 -23 -2001 0 -2088 49 -190 199 -338 387 -382 94 -22 2982 -22
3076 0 188 44 338 192 387 382 23 89 22 1997 -1 2087 -23 88 -70 170 -136 236
l-58 58 0 140 0 140 113 3 c98 4 119 8 169 32 64 31 111 80 142 146 19 42 21
64 21 231 0 175 -1 188 -24 234 -32 65 -82 113 -150 144 -46 21 -75 27 -163
30 l-108 5 0 356 c0 395 -5 440 -61 557 -46 96 -168 219 -262 263 -128 61
-124 61 -995 61 l-793 0 -24 -25 c-14 -13 -25 -36 -25 -50 0 -14 11 -37 25
-50 l24 -25 788 0 c846 0 845 0 945 -51 58 -29 140 -110 171 -167 58 -107 57
-88 57 -1035 0 -824 -1 -869 -17 -862 -49 18 -209 26 -506 23 l-329 -3 -24
-28 c-29 -34 -30 -56 -4 -90 l20 -25 388 -4 c376 -4 389 -4 445 -27 81 -32
166 -113 203 -193 l29 -63 3 -989 c3 -1094 5 -1045 -61 -1142 -45 -66 -119
-120 -196 -144 -62 -20 -95 -20 -1531 -20 -1436 0 -1469 0 -1531 20 -77 24
-151 78 -196 144 -66 97 -64 48 -61 1142 l3 989 29 63 c37 80 122 161 203 194
l58 23 998 5 c974 5 999 5 1013 24 30 42 12 98 -37 115 -23 8 -307 11 -958 11
-839 -1 -1030 -5 -1084 -26 -16 -6 -17 44 -17 863 0 947 -1 928 57 1035 31 57
113 138 171 167 88 45 139 51 440 51 l283 0 24 25 c14 13 25 36 25 50 0 14
-11 37 -25 50 l-24 25 -293 -1 c-206 0 -311 -5 -355 -14z m-453 -1635 l0 -260
-90 0 c-115 0 -162 21 -191 83 -15 34 -19 66 -19 175 0 143 9 180 52 220 35
32 69 40 166 41 l82 1 0 -260z m3687 234 c62 -47 68 -63 71 -219 3 -126 1
-149 -16 -189 -30 -66 -75 -86 -192 -86 l-90 0 0 261 0 261 100 -4 c80 -3 105
-8 127 -24z"/>
<path d="M2392 4640 c-180 -48 -343 -180 -421 -342 -55 -113 -74 -206 -68
-328 14 -279 186 -503 456 -598 67 -23 92 -26 201 -26 111 0 134 3 205 28 204
71 349 216 422 421 25 72 28 93 27 210 0 107 -4 141 -22 191 l-21 62 20 41
c38 80 23 189 -37 268 -60 79 -197 110 -294 67 -45 -20 -45 -20 -105 -1 -90
29 -268 33 -363 7z m294 -143 c5 -4 -42 -58 -104 -120 -64 -64 -118 -128 -127
-149 -21 -51 -19 -153 4 -203 23 -51 98 -118 149 -133 58 -18 131 -14 182 9
28 12 85 60 152 126 59 59 110 104 114 101 16 -16 16 -175 0 -242 -54 -227
-265 -396 -496 -396 -227 0 -437 164 -494 386 -69 267 92 542 364 620 47 14
243 15 256 1z m319 -2 c52 -25 74 -92 46 -142 -5 -10 -79 -87 -163 -170 -151
-149 -156 -153 -197 -153 -60 0 -101 41 -101 101 0 41 4 47 148 192 142 145
192 187 220 187 8 0 29 -7 47 -15z"/>
<path d="M1462 3695 c-62 -30 -127 -64 -143 -76 -54 -38 -83 -121 -67 -191 16
-74 48 -103 189 -173 109 -55 137 -65 180 -65 65 0 127 34 161 87 20 34 23 53
27 167 4 148 -5 190 -52 243 -72 81 -139 83 -295 8z m186 -107 c8 -8 12 -49
12 -118 0 -109 -7 -130 -42 -130 -26 0 -215 96 -221 112 -9 27 17 50 111 98
103 52 121 57 140 38z"/>
<path d="M3514 3686 c-136 -67 -164 -89 -189 -148 -20 -49 -19 -94 4 -143 26
-57 52 -77 186 -145 96 -48 129 -60 167 -60 58 0 95 13 131 48 48 45 59 78 65
192 8 176 -23 261 -112 301 -72 33 -110 26 -252 -45z m206 -105 c5 -11 10 -61
10 -111 0 -101 -10 -130 -43 -130 -12 1 -67 24 -122 53 -139 72 -139 80 2 151
59 30 116 55 125 55 10 1 22 -8 28 -18z"/>
<path d="M1454 2320 c-110 -16 -205 -85 -254 -185 l-25 -50 0 -645 c0 -640 0
-645 22 -692 30 -66 96 -133 162 -165 l56 -28 1145 0 1145 0 56 28 c66 32 132
99 162 165 22 47 22 52 22 692 l0 645 -23 46 c-54 109 -139 171 -258 189 -80
11 -2131 12 -2210 0z m2258 -172 c32 -19 52 -41 67 -71 21 -42 21 -55 21 -641
0 -566 -1 -599 -19 -634 -23 -46 -46 -67 -94 -87 -32 -13 -168 -15 -1127 -15
-959 0 -1095 2 -1127 15 -48 20 -71 41 -94 87 -18 35 -19 68 -19 634 0 584 0
599 21 640 22 48 72 84 128 95 20 4 522 6 1116 5 l1080 -1 47 -27z"/>
</g>
</svg>
