<?xml version="1.0" standalone="no"?>
<!DOCTYPE svg PUBLIC "-//W3C//DTD SVG 20010904//EN"
 "http://www.w3.org/TR/2001/REC-SVG-20010904/DTD/svg10.dtd">
<svg version="1.0" xmlns="http://www.w3.org/2000/svg"
 width="512.000000pt" height="512.000000pt" viewBox="0 0 512.000000 512.000000"
 preserveAspectRatio="xMidYMid meet">

<g transform="translate(0.000000,512.000000) scale(0.100000,-0.100000)"
fill="#000000" stroke="none">
<path d="M1608 4830 c-325 -39 -594 -285 -657 -600 -6 -30 -108 -743 -226
-1584 -146 -1040 -215 -1557 -215 -1616 0 -214 107 -437 275 -573 80 -64 216
-131 312 -154 73 -17 150 -18 1298 -18 l1220 0 90 28 c145 45 217 89 325 197
108 107 163 198 200 330 44 161 46 143 -119 1293 l-150 1047 330 401 c182 221
327 405 322 409 -56 47 -223 180 -226 180 -2 0 -111 -131 -242 -290 -131 -160
-239 -289 -241 -288 -1 2 -23 149 -49 328 -26 179 -56 352 -67 385 -83 250
-280 436 -537 508 -74 21 -94 21 -826 23 -412 1 -780 -2 -817 -6z m1591 -319
c147 -46 264 -165 305 -311 8 -30 43 -252 76 -492 l62 -438 -89 -107 c-49 -60
-297 -361 -552 -670 -254 -310 -464 -563 -467 -563 -2 0 -4 176 -4 390 l0 390
150 0 150 0 0 155 0 155 -150 0 -150 0 0 225 0 225 150 0 150 0 0 150 0 150
-455 0 -455 0 0 -150 0 -150 155 0 155 0 0 -225 0 -224 -152 -3 -153 -3 0
-150 0 -150 153 -3 152 -3 0 -529 0 -530 -670 0 c-631 0 -670 1 -670 18 0 45
353 2484 366 2532 40 144 158 265 302 311 53 17 108 18 819 18 720 1 765 0
822 -18z m592 -2274 c45 -318 79 -580 77 -583 -3 -2 -265 -3 -582 -2 l-578 3
493 599 c403 490 494 596 500 580 4 -10 45 -279 90 -597z m136 -962 c24 -133
28 -284 9 -350 -45 -154 -156 -269 -307 -316 -58 -18 -113 -19 -1247 -19 -974
0 -1196 3 -1238 14 -172 46 -303 190 -334 367 -10 57 -9 89 9 213 11 81 23
151 26 157 4 6 574 8 1538 7 l1532 -3 12 -70z"/>
</g>
</svg>
