<?xml version="1.0" standalone="no"?>
<!DOCTYPE svg PUBLIC "-//W3C//DTD SVG 20010904//EN"
 "http://www.w3.org/TR/2001/REC-SVG-20010904/DTD/svg10.dtd">
<svg version="1.0" xmlns="http://www.w3.org/2000/svg"
 width="512.000000pt" height="512.000000pt" viewBox="0 0 512.000000 512.000000"
 preserveAspectRatio="xMidYMid meet">

<g transform="translate(0.000000,512.000000) scale(0.100000,-0.100000)"
fill="#000000" stroke="none">
<path d="M1945 5105 c-134 -29 -217 -76 -321 -179 -65 -65 -89 -98 -122 -166
-50 -103 -59 -151 -114 -572 -23 -181 -44 -328 -47 -328 -3 0 -64 70 -135 155
-104 125 -139 159 -179 180 -115 57 -239 15 -300 -100 -27 -51 -29 -146 -4
-192 9 -18 80 -107 157 -200 93 -110 138 -173 135 -183 -77 -197 -27 -413 130
-566 l73 -71 -99 -754 c-98 -743 -99 -754 -81 -779 30 -40 101 -40 122 0 6 11
53 347 106 747 53 401 96 729 97 730 1 1 25 -3 52 -8 28 -6 83 -8 123 -4 55 4
72 3 72 -7 0 -7 -34 -269 -75 -581 -82 -628 -82 -626 -24 -706 116 -161 331
-156 552 10 110 84 261 160 377 191 118 32 356 32 471 0 152 -41 215 -75 439
-232 73 -51 175 -84 266 -85 95 0 174 38 221 109 56 83 59 107 34 311 -37 296
-42 326 -63 347 -27 27 -85 21 -110 -12 -18 -25 -18 -29 12 -254 16 -125 30
-239 30 -252 0 -32 -54 -91 -90 -99 -37 -8 -133 11 -180 36 -19 10 -71 45
-115 79 -44 33 -121 82 -171 107 l-92 47 -4 91 c-3 75 -9 101 -36 156 -50 104
-147 186 -259 219 l-43 13 0 989 c0 678 -3 996 -11 1009 -23 44 -104 44 -126
1 -4 -10 -10 -450 -13 -980 l-5 -962 -295 351 c-162 193 -303 361 -313 374
-17 23 -17 26 2 91 28 89 28 218 1 308 -11 36 -41 96 -66 133 l-46 68 52 400
c29 220 59 412 66 427 30 59 17 58 681 58 463 0 614 -3 632 -13 58 -30 52 3
196 -1092 74 -566 137 -1040 140 -1053 3 -13 20 -29 39 -38 30 -15 35 -15 64
0 18 9 34 27 38 40 6 26 -260 2069 -278 2128 -15 50 -78 122 -132 151 -41 22
-43 22 -680 25 -710 3 -695 4 -774 -63 -73 -63 -79 -88 -132 -492 -27 -200
-50 -367 -53 -369 -2 -2 -24 5 -48 15 -24 11 -76 25 -114 31 -38 6 -71 13 -74
15 -9 9 93 733 110 784 26 74 69 139 133 199 105 100 207 132 419 132 133 0
139 1 162 25 14 13 25 36 25 50 0 14 -11 37 -25 50 -23 24 -28 25 -172 24 -82
0 -175 -6 -208 -14z m-953 -1072 c20 -21 79 -89 131 -152 l95 -115 -27 -20
c-14 -10 -40 -32 -57 -48 l-30 -28 -116 138 c-63 76 -121 148 -127 160 -15 28
-4 68 22 87 36 25 70 18 109 -22z m644 -364 c70 -27 143 -93 185 -171 33 -60
34 -67 34 -168 0 -96 -2 -110 -30 -163 -17 -34 -52 -79 -82 -107 -186 -170
-478 -108 -585 126 -19 40 -23 66 -23 144 0 85 3 101 29 154 51 103 152 184
260 206 56 12 148 3 212 -21z m558 -1064 l286 -340 -23 -18 c-12 -9 -38 -31
-59 -47 l-36 -29 -279 331 c-153 183 -286 343 -297 356 l-18 23 53 49 c51 45
55 47 71 32 9 -9 145 -170 302 -357z m-169 -265 c220 -263 255 -308 250 -330
-3 -14 -9 -62 -12 -107 l-5 -83 -54 -24 c-62 -28 -181 -104 -240 -152 -53 -44
-136 -81 -199 -88 -64 -8 -113 15 -137 64 -16 34 -15 50 50 542 52 401 69 505
79 495 6 -6 127 -149 268 -317z m731 -195 c99 -29 184 -136 184 -233 0 -39 -2
-42 -22 -37 -125 28 -299 32 -423 10 -44 -8 -82 -15 -84 -15 -14 0 13 111 37
154 61 109 185 158 308 121z"/>
<path d="M2582 5113 c-7 -3 -19 -18 -28 -35 -13 -25 -13 -35 -3 -59 6 -17 20
-34 30 -39 10 -6 169 -10 386 -10 407 0 435 -3 547 -63 120 -63 218 -195 245
-327 6 -30 123 -914 261 -1964 272 -2074 259 -1940 202 -2008 -52 -62 42 -58
-1544 -58 -1395 0 -1455 1 -1494 19 -51 23 -85 70 -91 125 -3 24 5 120 17 214
21 160 21 174 6 197 -29 44 -93 45 -120 2 -20 -30 -60 -346 -54 -422 12 -143
130 -264 276 -282 l52 -6 0 -178 0 -178 26 -20 c24 -19 40 -21 169 -21 158 0
211 11 287 59 64 41 105 101 156 231 l44 110 726 -2 726 -3 44 -110 c62 -155
107 -211 209 -258 42 -19 68 -22 213 -25 228 -5 214 -19 218 216 l3 180 47 6
c137 18 254 133 276 271 9 54 -497 3909 -524 3998 -51 165 -184 314 -349 389
-113 52 -175 58 -579 57 -202 0 -373 -3 -380 -6z m-792 -4717 c0 -13 -63 -152
-80 -176 -35 -49 -93 -70 -198 -70 l-92 0 0 125 0 125 185 0 c102 0 185 -2
185 -4z m2150 -121 l0 -125 -92 0 c-150 1 -195 30 -253 168 l-34 82 189 0 190
0 0 -125z"/>
</g>
</svg>
